<?xml version="1.0" encoding="UTF-8" standalone="no"?><!DOCTYPE svg PUBLIC "-//W3C//DTD SVG 1.1//EN" "http://www.w3.org/Graphics/SVG/1.1/DTD/svg11.dtd"><svg width="100%" height="100%" viewBox="0 0 4715 2609" version="1.1" xmlns="http://www.w3.org/2000/svg" xmlns:xlink="http://www.w3.org/1999/xlink" xml:space="preserve" xmlns:serif="http://www.serif.com/" style="fill-rule:evenodd;clip-rule:evenodd;stroke-linejoin:round;stroke-miterlimit:2;"><path d="M2426.13,2594.67c-74.538,10.979 -149.973,14.626 -225.222,10.888c-181.445,-9.166 -359.89,-61.944 -512.389,-161.166c-67.613,-44 -132.113,-98.056 -167.112,-170.667c-47.501,-98.611 -30.889,-223.444 36.944,-309.333c24.743,-30.979 55.179,-56.945 89.668,-76.5c5.11,-2.889 10.332,-5.667 15.611,-8.334c57.463,-28.897 122.026,-40.718 186,-34.055c108.776,11.889 209.166,78.333 267.166,171.167c51.666,82.777 69.667,180.444 80.279,278.333c1.999,18.444 3.722,36.944 5.387,55.333c-9.244,53.276 -23.779,105.498 -43.389,155.889c-0.997,2.456 -1.814,4.981 -2.444,7.556c11.111,24.111 21.685,48.444 31.722,73c9.43,5.119 19.994,7.793 30.724,7.777l206.611,0l0.444,0.112Z" style="fill:#f2f2f2;fill-rule:nonzero;"/><path d="M2184.07,2599.39c-1.449,0.647 -3.018,0.981 -4.605,0.981c-4.52,0 -8.623,-2.712 -10.394,-6.87c-0.889,-2.111 -1.722,-4.222 -2.612,-6.333c-8,-19.445 -16.388,-38.704 -25.165,-57.778c-112.373,-246.132 -280.008,-463.065 -489.836,-633.889c-2.445,-1.718 -3.767,-4.64 -3.442,-7.611c0.972,-5.347 5.674,-9.27 11.108,-9.27c1.55,0 3.082,0.319 4.503,0.937c0.836,0.379 1.621,0.865 2.333,1.444c89.777,73.122 172.137,154.905 245.888,244.167c73.766,89.178 138.718,185.294 193.945,287c15.055,27.778 29.351,55.944 42.887,84.5c2.67,5.666 5.336,11.389 7.946,17.111c11.111,24.111 21.685,48.444 31.722,73c0.168,0.389 0.334,0.833 0.502,1.222c0.544,1.12 0.828,2.349 0.828,3.595c-0,3.524 -2.267,6.674 -5.608,7.794Z" style="fill:#fff;fill-rule:nonzero;"/><circle cx="1447.24" cy="1650" r="216.667" style="fill:#fa7d00;"/><path d="M1425.76,1732.65c-4.874,0.009 -9.621,-1.567 -13.521,-4.491l-0.242,-0.181l-50.918,-38.985c-5.588,-4.278 -8.872,-10.926 -8.872,-17.963c0,-12.41 10.212,-22.622 22.622,-22.622c4.977,-0 9.818,1.642 13.767,4.671l32.981,25.29l77.939,-101.644c4.278,-5.58 10.921,-8.857 17.951,-8.857c4.977,-0 9.817,1.642 13.765,4.67l-0.484,0.658l0.497,-0.649c9.835,7.559 11.724,21.865 4.187,31.717l-91.675,119.558c-4.295,5.58 -10.956,8.848 -17.998,8.828Z" style="fill:#fff;fill-rule:nonzero;"/><path d="M4708.25,2608.01l-4701.63,-0c-3.622,-0.011 -6.596,-2.994 -6.596,-6.615c0,-3.622 2.974,-6.605 6.596,-6.615l4701.63,-0c3.622,0.01 6.596,2.993 6.596,6.615c0,3.621 -2.974,6.604 -6.596,6.615Z" style="fill:#3f3d56;fill-rule:nonzero;"/><circle cx="919.699" cy="594.471" r="160.777" style="fill:#2f2e41;"/><path d="M723.64,437.22c25.963,-25.964 62.852,-31.234 82.324,-11.761c19.473,19.473 14.203,56.361 -11.76,82.325c-25.964,25.964 -62.852,31.233 -82.325,11.761c-19.473,-19.473 -14.203,-56.362 11.761,-82.325Z" style="fill:#2f2e41;"/><path d="M964.911,404.459c10.818,-25.325 47.014,-34.176 80.781,-19.752c33.766,14.424 52.398,46.695 41.58,72.02c-10.818,25.325 -47.015,34.175 -80.781,19.751c-33.767,-14.424 -52.398,-46.695 -41.58,-72.019Z" style="fill:#2f2e41;"/><path d="M1367.4,1522.71c4.508,-8.568 6.864,-18.106 6.864,-27.788c0,-25.926 -16.894,-49.023 -41.602,-56.877l-232.312,-491.44l-106.266,74.517l261.77,459.638c-1.157,4.697 -1.742,9.518 -1.742,14.356c-0,32.918 27.087,60.005 60.005,60.005c22.388,-0 42.988,-12.53 53.283,-32.411l0,-0Z" style="fill:#ffb8b8;fill-rule:nonzero;"/><path d="M1153.62,1028.59l-123.381,55.171c-3.437,1.537 -7.159,2.331 -10.924,2.331c-11.959,0 -22.535,-8.017 -25.766,-19.532l-36.384,-129.74c-4.156,-9.438 -6.302,-19.638 -6.302,-29.951c-0,-40.77 33.549,-74.318 74.319,-74.318c29.259,-0 55.909,17.279 67.849,43.991l72.23,113.234c2.739,4.297 4.195,9.289 4.195,14.385c-0,10.534 -6.22,20.128 -15.836,24.429Z" style="fill:#ccc;fill-rule:nonzero;"/><path d="M583.803,1571.43c26.946,-6.258 46.18,-30.471 46.18,-58.135c0,-8.079 -1.64,-16.074 -4.821,-23.501l220.012,-497.067l-125.858,-31.7l-176.69,498.569c-20.084,10.225 -32.78,30.937 -32.78,53.473c-0,32.918 27.087,60.006 60.005,60.006c4.699,-0 9.382,-0.552 13.952,-1.645l-0,-0Z" style="fill:#ffb8b8;fill-rule:nonzero;"/><path d="M523.828,2472.41l64,23.3l120.339,-235.767l-94.461,-34.389l-89.878,246.856Z" style="fill:#ffb8b8;fill-rule:nonzero;"/><path d="M689.618,2600.08l-201.142,-73.235l28.295,-77.714l123.429,44.94c42.632,15.522 64.94,63.377 49.418,106.009l-0,0Z" style="fill:#2f2e41;fill-rule:nonzero;"/><path d="M675.21,2336.73c-3.927,0.001 -7.806,-0.87 -11.355,-2.55l-73.552,-34.838c-12.433,-5.836 -18.425,-20.374 -13.714,-33.276l207.577,-574.823c3.82,-10.579 13.92,-17.67 25.168,-17.67c9.39,-0 18.117,4.942 22.947,12.995l109.791,182.984c4.968,8.29 5.078,18.65 0.289,27.044l-243.817,426.678c-4.804,8.328 -13.721,13.47 -23.334,13.456Z" style="fill:#2f2e41;fill-rule:nonzero;"/><circle cx="924.798" cy="632.852" r="136.45" style="fill:#ffb8b8;"/><path d="M1117.84,1253.24l-241.6,-66.442l-128.498,-256.993c-5.622,-11.244 -8.549,-23.643 -8.549,-36.214c0,-44.423 36.555,-80.978 80.978,-80.978c0.001,-0 192.221,-0 192.221,-0c19.946,-0.013 39.209,7.354 54.056,20.674c51.564,46.192 159.894,179.36 52.438,417.63l-1.046,2.323Z" style="fill:#ccc;fill-rule:nonzero;"/><path d="M815.391,1081.62l-122.408,-57.298c-9.39,-4.396 -15.415,-13.869 -15.415,-24.236c-0,-5.254 1.547,-10.393 4.447,-14.773l74.391,-112.348c12.291,-25.87 38.487,-42.426 67.128,-42.426c40.77,0 74.318,33.549 74.318,74.319c0,10.891 -2.394,21.651 -7.012,31.514l-38.467,128.683c-3.381,11.296 -13.847,19.088 -25.637,19.088c-3.921,0 -7.794,-0.861 -11.345,-2.523Z" style="fill:#ccc;fill-rule:nonzero;"/><path d="M963.489,2536.83l68.105,-0l32.406,-262.711l-100.528,0.005l0.017,262.706Z" style="fill:#ffb8b8;fill-rule:nonzero;"/><path d="M1162.95,2600.07l-214.06,0.009l-0.004,-82.704l131.355,-0.006c45.371,-0.002 82.707,37.33 82.709,82.7l-0,0.001Z" style="fill:#2f2e41;fill-rule:nonzero;"/><path d="M989.204,2436.72c-12.576,0.018 -23.533,-8.879 -26.098,-21.191c-19.578,-92.244 -121.257,-564.73 -200.618,-808.105c-80.745,-247.614 56.769,-360.398 85.155,-380.492c3.023,-2.135 5.425,-5.035 6.96,-8.403l20.623,-45.367c4.36,-9.548 13.933,-15.702 24.429,-15.703l0.167,0c154.603,0.923 206.578,49.659 221.746,70.571c4.527,6.301 6.059,14.284 4.188,21.812l-97.821,403.582c-0.606,2.503 -0.744,5.096 -0.405,7.649l97.324,732.777c0.155,1.168 0.233,2.344 0.233,3.522c-0,13.528 -10.255,25.036 -23.693,26.589l-109.048,12.579c-1.043,0.12 -2.092,0.18 -3.142,0.18Z" style="fill:#2f2e41;fill-rule:nonzero;"/><path d="M781.421,547.025c31.177,21.488 68.195,32.929 106.059,32.777c-13.508,9.367 -28.887,15.694 -45.075,18.545c50.348,10.8 102.388,11.092 152.855,0.859c11.218,-1.799 22.043,-5.517 31.999,-10.99c10.029,-5.601 17.215,-15.212 19.751,-26.415c3.354,-19.159 -11.575,-36.565 -27.089,-48.295c-48.07,-35.793 -109.78,-48.124 -167.914,-33.554c-18.757,4.848 -37.547,13.04 -49.73,28.103c-12.184,15.064 -15.792,38.287 -4.185,53.798l-16.671,-14.828Z" style="fill:#2f2e41;fill-rule:nonzero;"/><circle cx="3286.13" cy="1066.67" r="72.222" style="fill:#fa7d00;"/><path d="M3278.97,1094.22c-1.624,0.003 -3.207,-0.523 -4.507,-1.497l-0.08,-0.061l-16.973,-12.995c-1.87,-1.425 -2.969,-3.646 -2.969,-5.997c-0,-4.136 3.403,-7.54 7.54,-7.54c1.664,-0 3.283,0.551 4.601,1.566l10.994,8.43l25.979,-33.881c1.426,-1.86 3.641,-2.953 5.984,-2.953c1.659,0 3.272,0.548 4.589,1.557l-0.162,0.219l0.166,-0.216c3.278,2.52 3.908,7.288 1.395,10.572l-30.558,39.853c-1.431,1.86 -3.652,2.949 -5.999,2.943Z" style="fill:#fff;fill-rule:nonzero;"/><circle cx="3286.13" cy="1277.78" r="72.222" style="fill:#fa7d00;"/><path d="M3278.97,1305.33c-1.624,0.003 -3.207,-0.523 -4.507,-1.497l-0.08,-0.061l-16.973,-12.995c-1.87,-1.425 -2.969,-3.646 -2.969,-5.997c-0,-4.136 3.403,-7.54 7.54,-7.54c1.664,-0 3.283,0.551 4.601,1.566l10.994,8.43l25.979,-33.881c1.426,-1.86 3.641,-2.953 5.984,-2.953c1.659,0 3.272,0.548 4.589,1.557l-0.162,0.219l0.166,-0.216c3.278,2.52 3.908,7.288 1.395,10.572l-30.558,39.853c-1.431,1.86 -3.652,2.949 -5.999,2.943Z" style="fill:#fff;fill-rule:nonzero;"/><circle cx="3325.02" cy="1522.22" r="72.222" style="fill:#fa7d00;"/><path d="M3317.86,1549.77c-1.625,0.003 -3.207,-0.522 -4.507,-1.497l-0.08,-0.06l-16.973,-12.995c-1.87,-1.425 -2.97,-3.646 -2.97,-5.997c0,-4.137 3.404,-7.541 7.541,-7.541c1.664,0 3.283,0.551 4.601,1.567l10.994,8.429l25.979,-33.881c1.426,-1.86 3.641,-2.952 5.984,-2.952c1.659,-0 3.272,0.547 4.589,1.556l-0.162,0.22l0.166,-0.216c3.278,2.519 3.908,7.288 1.395,10.572l-30.558,39.852c-1.431,1.861 -3.652,2.95 -5.999,2.943Z" style="fill:#fff;fill-rule:nonzero;"/><path d="M4021.44,2125.22c-0.748,0 -1.22,-0.019 -1.384,-0.029l-89.665,0.01l-0,-13.221l89.989,0c2.083,0.075 44.592,1.275 83.758,-46.249c58.366,-70.828 106.297,-246.165 3.182,-679.245c-138.651,-582.336 -23.01,-1096.8 33.144,-1290.96c1.67,-5.8 2.518,-11.806 2.518,-17.842c0,-35.365 -29.101,-64.467 -64.466,-64.467c-0.026,0 -0.051,0 -0.077,0l-1339.08,0c-20.632,0.028 -40.055,9.915 -52.219,26.58c-23.787,32.723 -56.432,95.585 -76.86,209.25l-13.011,-2.336c20.87,-116.135 54.577,-180.847 79.178,-214.686c14.652,-20.081 38.054,-31.995 62.912,-32.028l1339.08,-0c0.024,-0 0.049,-0 0.074,-0c42.619,-0 77.689,35.07 77.689,77.689c0,7.278 -1.023,14.52 -3.038,21.513c-55.865,193.151 -170.907,704.944 -32.982,1284.22c104.564,439.17 54.296,618.306 -6.284,691.248c-39.959,48.108 -83.986,50.545 -92.459,50.545Z" style="fill:#e6e6e6;fill-rule:nonzero;"/><path d="M3780.16,2366.49c-0.748,0 -1.22,-0.019 -1.384,-0.029l-89.665,0.01l0,-13.221l89.989,0c2.095,0.065 44.592,1.275 83.758,-46.249c58.366,-70.828 106.297,-246.165 3.183,-679.245c-138.652,-582.336 -23.011,-1096.8 33.143,-1290.96c1.67,-5.8 2.518,-11.806 2.518,-17.842c0,-35.365 -29.101,-64.467 -64.466,-64.467c-0.026,0 -0.051,0 -0.077,0l-1339.08,0c-20.632,0.028 -40.055,9.915 -52.219,26.58c-23.787,32.723 -56.432,95.585 -76.859,209.25l-13.013,-2.337c20.871,-116.134 54.578,-180.846 79.179,-214.685c14.652,-20.081 38.054,-31.995 62.912,-32.028l1339.08,-0c0.025,-0 0.05,-0 0.075,-0c42.619,-0 77.689,35.07 77.689,77.689c0,7.278 -1.023,14.52 -3.038,21.513c-55.865,193.151 -170.907,704.943 -32.982,1284.22c104.564,439.17 54.296,618.305 -6.284,691.248c-39.959,48.108 -83.986,50.545 -92.459,50.545Z" style="fill:#ccc;fill-rule:nonzero;"/><path d="M3637.63,1866c-137.945,-579.278 -22.889,-1091.11 33,-1284.22c2.007,-6.983 3.026,-14.213 3.026,-21.479c-0,-42.649 -35.095,-77.743 -77.744,-77.743c-0.002,-0 -0.004,-0 -0.005,-0l-1339.11,-0c-24.848,0.024 -48.243,11.928 -62.891,32c-54.055,74.333 -166.222,320.833 -40.942,1002.89c66.998,364.889 65.999,613.667 44.111,777.556c-12.281,92.278 -31.223,157.611 -48.392,201.667l-1.831,4.667c-3.616,8.914 -5.501,18.436 -5.555,28.055c-0.256,21.96 8.912,43.009 25.165,57.778c5.242,4.912 11.175,9.03 17.611,12.222c5.343,2.726 10.995,4.796 16.835,6.167c5.946,1.451 12.046,2.179 18.166,2.167l1318.44,-0c0.168,-0 0.61,0.055 1.389,0.055c8.444,0 52.501,-2.444 92.445,-50.555c60.555,-72.945 110.832,-252.056 6.277,-691.223Zm-16.056,682.278c-39.166,47.555 -81.665,46.333 -83.721,46.278l-1318.78,-0c-21.418,-0.007 -41.489,-10.657 -53.502,-28.389c-10.536,-15.289 -13.811,-34.471 -8.943,-52.389c0.63,-2.575 1.447,-5.1 2.444,-7.556c19.61,-50.391 34.145,-102.612 43.389,-155.889c31.334,-170.833 37.166,-434.444 -36.499,-835.277c-124.333,-677 -14.388,-919.778 38.609,-992.723c12.185,-16.64 31.6,-26.512 52.225,-26.555l1339.11,-0c0.015,-0 0.03,-0 0.045,-0c35.364,-0 64.465,29.101 64.465,64.465c0,6.026 -0.845,12.022 -2.51,17.813c-56.166,194.166 -171.777,708.666 -33.111,1291c103.112,433.055 55.168,608.389 -3.222,679.222Z" style="fill:#3f3d56;fill-rule:nonzero;"/><path d="M3001.46,1113.34l-689.922,0c-29.01,0 -52.882,-23.872 -52.882,-52.882c-0,-29.01 23.872,-52.882 52.882,-52.882l689.922,-0c29.011,-0 52.882,23.872 52.882,52.882c0,29.01 -23.871,52.882 -52.882,52.882Z" style="fill:#ccc;fill-rule:nonzero;"/><path d="M3001.46,1341.11l-689.922,-0c-29.01,-0 -52.882,-23.872 -52.882,-52.882c-0,-29.011 23.872,-52.882 52.882,-52.882l689.922,-0c29.011,-0 52.882,23.871 52.882,52.882c0,29.01 -23.871,52.882 -52.882,52.882Z" style="fill:#ccc;fill-rule:nonzero;"/><path d="M3057.01,1574.45l-689.922,0c-29.011,0 -52.883,-23.872 -52.883,-52.882c0,-29.01 23.872,-52.882 52.883,-52.882l689.922,-0c29.01,-0 52.882,23.872 52.882,52.882c0,29.01 -23.872,52.882 -52.882,52.882Z" style="fill:#ccc;fill-rule:nonzero;"/><path d="M3095.9,1818.89l-689.923,-0c-29.01,-0 -52.882,-23.872 -52.882,-52.882c0,-29.011 23.872,-52.883 52.882,-52.883l689.923,0c29.01,0 52.882,23.872 52.882,52.883c-0,29.01 -23.872,52.882 -52.882,52.882Z" style="fill:#ccc;fill-rule:nonzero;"/><path d="M3096.2,702.725l-495.77,0c-0.018,0 -0.036,0 -0.054,0c-29.011,0 -52.883,-23.872 -52.883,-52.882c0,-29.01 23.872,-52.882 52.883,-52.882c0.018,-0 0.036,-0 0.054,-0l495.77,-0c29.011,-0 52.882,23.872 52.882,52.882c0,29.01 -23.871,52.882 -52.882,52.882Z" style="fill:#fa7d00;fill-rule:nonzero;"/><circle cx="3369.46" cy="1766.01" r="72.222" style="fill:#ccc;"/><path d="M3129.24,2057.78l-689.922,-0c-29.01,-0 -52.882,-23.872 -52.882,-52.883c-0,-29.01 23.872,-52.882 52.882,-52.882l689.922,0c29.01,0 52.882,23.872 52.882,52.882c0,29.011 -23.872,52.883 -52.882,52.883Z" style="fill:#ccc;fill-rule:nonzero;"/><circle cx="3402.8" cy="2004.9" r="72.222" style="fill:#ccc;"/></svg>